<svg width="16" height="16" viewBox="0 0 16 16" fill="none" xmlns="http://www.w3.org/2000/svg">
<path d="M2.55556 10.1657L3.04292 10.054L2.55556 10.1657ZM2.55556 6.23549L3.04292 6.34719L2.55556 6.23549ZM13.4445 6.23549L12.9572 6.34719L13.4445 6.23549ZM13.4445 10.1657L12.9572 10.054L13.4445 10.1657ZM9.92014 13.7726L10.0369 14.2588L9.92014 13.7726ZM6.07995 13.7726L6.19666 13.2864L6.07995 13.7726ZM6.07994 2.62853L6.19666 3.11472L6.07994 2.62853ZM9.92014 2.62853L10.0369 2.14234L9.92014 2.62853ZM5.88009 2C5.88009 1.72386 5.65624 1.5 5.38009 1.5C5.10395 1.5 4.88009 1.72386 4.88009 2H5.88009ZM4.88009 3.67583C4.88009 3.95197 5.10395 4.17583 5.38009 4.17583C5.65624 4.17583 5.88009 3.95197 5.88009 3.67583H4.88009ZM11.12 2C11.12 1.72386 10.8961 1.5 10.62 1.5C10.3438 1.5 10.12 1.72386 10.12 2H11.12ZM10.12 3.67583C10.12 3.95197 10.3438 4.17583 10.62 4.17583C10.8961 4.17583 11.12 3.95197 11.12 3.67583H10.12ZM3.04292 10.054C2.76353 8.83495 2.76353 7.56619 3.04292 6.34719L2.06819 6.12378C1.7551 7.48981 1.7551 8.91133 2.06819 10.2774L3.04292 10.054ZM12.9572 6.34719C13.2366 7.56619 13.2366 8.83495 12.9572 10.054L13.9319 10.2774C14.245 8.91133 14.245 7.48981 13.9319 6.12379L12.9572 6.34719ZM9.80342 13.2864C8.61722 13.5712 7.38286 13.5712 6.19666 13.2864L5.96323 14.2588C7.30287 14.5804 8.69721 14.5804 10.0369 14.2588L9.80342 13.2864ZM6.19666 3.11472C7.38286 2.82995 8.61722 2.82995 9.80342 3.11472L10.0369 2.14234C8.69721 1.82074 7.30287 1.82074 5.96323 2.14234L6.19666 3.11472ZM6.19666 13.2864C4.63742 12.9121 3.41183 11.6635 3.04292 10.054L2.06819 10.2774C2.51968 12.2472 4.02497 13.7935 5.96323 14.2588L6.19666 13.2864ZM10.0369 14.2588C11.9751 13.7935 13.4804 12.2472 13.9319 10.2774L12.9572 10.054C12.5883 11.6635 11.3627 12.9121 9.80342 13.2864L10.0369 14.2588ZM9.80342 3.11472C11.3627 3.48903 12.5883 4.73761 12.9572 6.34719L13.9319 6.12379C13.4804 4.15393 11.9751 2.60765 10.0369 2.14234L9.80342 3.11472ZM5.96323 2.14234C4.02497 2.60765 2.51968 4.15392 2.06819 6.12378L3.04292 6.34719C3.41183 4.73761 4.63742 3.48903 6.19666 3.11472L5.96323 2.14234ZM2.76015 6.01924H13.2399V5.01924H2.76015V6.01924ZM4.88009 2V3.67583H5.88009V2H4.88009ZM10.12 2V3.67583H11.12V2H10.12Z" fill="#333333"/>
<path d="M8.96137 9.28262C9.23137 9.09062 9.39937 8.80262 9.39937 8.41262C9.39937 7.60262 8.77537 7.18262 8.03737 7.18262C7.29937 7.18262 6.66937 7.60262 6.66937 8.41262C6.66937 8.80262 6.84337 9.09062 7.10737 9.28262C6.74137 9.50462 6.53137 9.87062 6.53137 10.2966C6.53137 11.0706 7.10137 11.5506 8.03737 11.5506C8.96737 11.5506 9.54337 11.0706 9.54337 10.2966C9.54337 9.87062 9.33337 9.50462 8.96137 9.28262ZM8.03737 7.96262C8.34937 7.96262 8.57737 8.14262 8.57737 8.45462C8.57737 8.76062 8.34937 8.95262 8.03737 8.95262C7.72537 8.95262 7.49737 8.76062 7.49737 8.45462C7.49737 8.14262 7.72537 7.96262 8.03737 7.96262ZM8.03737 10.7706C7.64137 10.7706 7.35337 10.5666 7.35337 10.1886C7.35337 9.81662 7.64137 9.61262 8.03737 9.61262C8.43337 9.61262 8.72137 9.81662 8.72137 10.1886C8.72137 10.5666 8.43337 10.7706 8.03737 10.7706Z" fill="#333333"/>
</svg>
