<svg width="25" height="24" viewBox="0 0 25 24" fill="none" xmlns="http://www.w3.org/2000/svg">
<path d="M3.5322 8.70024H21.14M3.21478 15.1513C2.70054 13.0819 2.70054 10.9181 3.21478 8.84875C3.88793 6.13983 6.03748 4.04534 8.76403 3.44162L9.21824 3.34105C11.2719 2.88632 13.4003 2.88632 15.454 3.34105L15.9082 3.44162C18.6347 4.04534 20.7843 6.13984 21.4574 8.84875C21.9717 10.9182 21.9717 13.0819 21.4574 15.1512C20.7843 17.8602 18.6347 19.9547 15.9082 20.5584L15.454 20.659C13.4003 21.1137 11.2719 21.1137 9.21824 20.659L8.76403 20.5584C6.03748 19.9547 3.88793 17.8602 3.21478 15.1513Z" stroke="#363853" stroke-width="1.5"/>
<path d="M7.33203 12L11.335 12" stroke="#363853" stroke-width="1.5" stroke-linecap="round"/>
</svg>
