<svg width="16" height="16" viewBox="0 0 16 16" fill="none" xmlns="http://www.w3.org/2000/svg">
<path d="M2.23525 9.87449L2.72152 9.75812L2.23525 9.87449ZM2.23525 5.88865L2.72152 6.00501L2.23525 5.88865ZM13.7647 5.88865L13.2785 6.00501L13.7647 5.88865ZM13.7647 9.87448L13.2785 9.75812L13.7647 9.87448ZM10.033 13.5325L9.921 13.0452L10.033 13.5325ZM5.96696 13.5325L5.85491 14.0198L5.96696 13.5325ZM5.96696 2.23061L6.079 2.71789L5.96696 2.23061ZM10.033 2.23061L9.921 2.71789L10.033 2.23061ZM2.72152 9.75812C2.42616 8.5238 2.42616 7.23934 2.72152 6.00501L1.74898 5.77229C1.41701 7.15961 1.41701 8.60353 1.74898 9.99085L2.72152 9.75812ZM13.2785 6.00501C13.5738 7.23934 13.5738 8.5238 13.2785 9.75812L14.251 9.99084C14.583 8.60353 14.583 7.15961 14.251 5.77229L13.2785 6.00501ZM9.921 13.0452C8.65752 13.3358 7.34248 13.3358 6.079 13.0452L5.85491 14.0198C7.26586 14.3442 8.73414 14.3442 10.1451 14.0198L9.921 13.0452ZM6.079 2.71789C7.34248 2.42737 8.65752 2.42737 9.921 2.71789L10.1451 1.74332C8.73414 1.41889 7.26586 1.41889 5.85491 1.74332L6.079 2.71789ZM6.079 13.0452C4.40819 12.6611 3.11066 11.3843 2.72152 9.75812L1.74898 9.99085C2.22851 11.9948 3.82249 13.5525 5.85491 14.0198L6.079 13.0452ZM10.1451 14.0198C12.1775 13.5525 13.7715 11.9948 14.251 9.99084L13.2785 9.75812C12.8893 11.3843 11.5918 12.6611 9.921 13.0452L10.1451 14.0198ZM9.921 2.71789C11.5918 3.10207 12.8893 4.37882 13.2785 6.00501L14.251 5.77229C13.7715 3.76835 12.1775 2.21065 10.1451 1.74332L9.921 2.71789ZM5.85491 1.74332C3.82249 2.21065 2.22851 3.76835 1.74898 5.77229L2.72152 6.00501C3.11066 4.37882 4.40819 3.10207 6.079 2.71789L5.85491 1.74332ZM9.88703 14C9.88703 13.0242 9.88813 12.3436 9.95856 11.8301C10.0269 11.332 10.1519 11.0662 10.3464 10.8755L9.6464 10.1613C9.23157 10.568 9.05187 11.0815 8.96784 11.6942C8.88593 12.2914 8.88703 13.053 8.88703 14H9.88703ZM13.5481 9.42104C12.5812 9.42104 11.8067 9.42002 11.1999 9.5C10.5797 9.58174 10.0598 9.75606 9.6464 10.1613L10.3464 10.8755C10.5424 10.6834 10.8176 10.559 11.3305 10.4914C11.8568 10.4221 12.5535 10.421 13.5481 10.421V9.42104Z" fill="#333333"/>
<path d="M6 6H8M6 8H9.33333" stroke="#333333" stroke-linecap="round"/>
</svg>
