<svg width="14" height="14" viewBox="0 0 14 14" fill="none" xmlns="http://www.w3.org/2000/svg">
<path d="M4.28376 3.26141C2.75103 3.62094 1.55427 4.8177 1.19474 6.35043C0.935088 7.45734 0.935088 8.60933 1.19474 9.71625C1.55427 11.249 2.75103 12.4457 4.28376 12.8053C5.39067 13.0649 6.54266 13.0649 7.64957 12.8053C9.1823 12.4457 10.3791 11.249 10.7386 9.71624M4.28376 3.26141C5.39067 3.00176 6.54266 3.00176 7.64957 3.26141C9.1823 3.62094 10.3791 4.8177 10.7386 6.35043C10.9982 7.45734 10.9982 8.60933 10.7386 9.71624M4.28376 3.26141C4.01848 3.32363 3.76327 3.41094 3.52072 3.52072C4.04526 2.36185 5.08298 1.49204 6.35043 1.19474C7.45735 0.935088 8.60933 0.935088 9.71625 1.19474C11.249 1.55426 12.4457 2.75103 12.8053 4.28376C13.0649 5.39067 13.0649 6.54266 12.8053 7.64957C12.508 8.91702 11.6381 9.95474 10.4793 10.4793C10.5891 10.2367 10.6764 9.98152 10.7386 9.71624" stroke="#333333"/>
</svg>
