<svg width="16" height="16" viewBox="0 0 16 16" fill="none" xmlns="http://www.w3.org/2000/svg">
<g clip-path="url(#clip0_541_9334)">
<path fill-rule="evenodd" clip-rule="evenodd" d="M6.06665 6.06673V4.66673C6.06665 2.50873 7.84198 0.733398 9.99998 0.733398H12C12.3313 0.733398 12.6 1.00207 12.6 1.3334V4.00007C12.6 4.3314 12.3313 4.60007 12 4.60007H9.99998C9.96332 4.60007 9.93332 4.63007 9.93332 4.66673V6.06673H12C12.1847 6.06673 12.3593 6.15207 12.4727 6.2974C12.5866 6.4434 12.6266 6.63273 12.582 6.81207L11.9153 9.47873C11.8486 9.74607 11.6087 9.9334 11.3333 9.9334H9.93332V14.6667C9.93332 14.9981 9.66465 15.2667 9.33332 15.2667H6.66665C6.33532 15.2667 6.06665 14.9981 6.06665 14.6667V9.9334H4.66665C4.33532 9.9334 4.06665 9.66473 4.06665 9.3334V6.66673C4.06665 6.3354 4.33532 6.06673 4.66665 6.06673H6.06665ZM11.4 1.9334H9.99998C8.50065 1.9334 7.26665 3.1674 7.26665 4.66673V6.66673C7.26665 6.99806 6.99798 7.26673 6.66665 7.26673H5.26665V8.7334H6.66665C6.99798 8.7334 7.26665 9.00206 7.26665 9.3334V14.0667H8.73332V9.3334C8.73332 9.00206 9.00198 8.7334 9.33332 8.7334H10.8647L11.2313 7.26673H9.33332C9.00198 7.26673 8.73332 6.99806 8.73332 6.66673V4.66673C8.73332 3.97207 9.30532 3.40007 9.99998 3.40007H11.4V1.9334Z" fill="#2C2C2C"/>
</g>
<defs>
<clipPath id="clip0_541_9334">
<rect width="16" height="16" fill="white"/>
</clipPath>
</defs>
</svg>
