<svg width="16" height="16" viewBox="0 0 16 16" fill="none" xmlns="http://www.w3.org/2000/svg">
<path fill-rule="evenodd" clip-rule="evenodd" d="M6.33496 13.6139H2.66829C1.93191 13.6139 1.33496 13.017 1.33496 12.2806V4.2806C1.33496 3.54422 1.93191 2.94727 2.66829 2.94727H6.33496C7.15276 2.94727 7.87883 3.33994 8.33496 3.94702C8.79109 3.33994 9.51716 2.94727 10.335 2.94727H14.0016C14.738 2.94727 15.335 3.54422 15.335 4.2806V12.2806C15.335 13.017 14.738 13.6139 14.0016 13.6139H10.335C9.74083 13.6139 9.22736 13.9593 8.98449 14.4603C8.85803 14.7211 8.62476 14.9473 8.33496 14.9473C8.04516 14.9473 7.81189 14.7211 7.68543 14.4603C7.44256 13.9593 6.92909 13.6139 6.33496 13.6139ZM2.33496 4.2806C2.33496 4.09651 2.4842 3.94727 2.66829 3.94727H6.33496C7.16336 3.94727 7.83496 4.61884 7.83496 5.44727V13.1137C7.41716 12.7999 6.89777 12.6139 6.33496 12.6139H2.66829C2.4842 12.6139 2.33496 12.4647 2.33496 12.2806V4.2806ZM10.335 3.94727C9.50656 3.94727 8.83496 4.61884 8.83496 5.44727V13.1137C9.25276 12.7999 9.77216 12.6139 10.335 12.6139H14.0016C14.1857 12.6139 14.335 12.4647 14.335 12.2806V4.2806C14.335 4.09651 14.1857 3.94727 14.0016 3.94727H10.335Z" fill="#333333"/>
</svg>
