<svg width="14" height="14" viewBox="0 0 14 14" fill="none" xmlns="http://www.w3.org/2000/svg">
<path d="M10.5599 2.64016C10.4017 2.64016 10.247 2.68708 10.1155 2.77499C9.9839 2.86289 9.88136 2.98783 9.82081 3.13402C9.76026 3.2802 9.74442 3.44105 9.77529 3.59623C9.80616 3.75142 9.88235 3.89397 9.99423 4.00585C10.1061 4.11773 10.2487 4.19392 10.4038 4.22479C10.559 4.25566 10.7199 4.23982 10.8661 4.17927C11.0122 4.11872 11.1372 4.01618 11.2251 3.88462C11.313 3.75306 11.3599 3.59839 11.3599 3.44016C11.3599 3.22799 11.2756 3.02451 11.1256 2.87448C10.9756 2.72445 10.7721 2.64016 10.5599 2.64016ZM13.6266 4.2535C13.6136 3.70036 13.51 3.1531 13.3199 2.6335C13.1504 2.18892 12.8866 1.78635 12.5466 1.4535C12.2165 1.11178 11.813 0.849614 11.3666 0.686829C10.8484 0.490937 10.3005 0.384969 9.74658 0.373496C9.03992 0.333496 8.81325 0.333496 6.99992 0.333496C5.18658 0.333496 4.95992 0.333496 4.25325 0.373496C3.69935 0.384969 3.15148 0.490937 2.63325 0.686829C2.1877 0.851262 1.78454 1.1132 1.45325 1.4535C1.11154 1.78361 0.84937 2.18712 0.686585 2.6335C0.490692 3.15172 0.384725 3.6996 0.373252 4.2535C0.333252 4.96016 0.333252 5.18683 0.333252 7.00016C0.333252 8.8135 0.333252 9.04016 0.373252 9.74683C0.384725 10.3007 0.490692 10.8486 0.686585 11.3668C0.84937 11.8132 1.11154 12.2167 1.45325 12.5468C1.78454 12.8871 2.1877 13.1491 2.63325 13.3135C3.15148 13.5094 3.69935 13.6154 4.25325 13.6268C4.95992 13.6668 5.18658 13.6668 6.99992 13.6668C8.81325 13.6668 9.03992 13.6668 9.74658 13.6268C10.3005 13.6154 10.8484 13.5094 11.3666 13.3135C11.813 13.1507 12.2165 12.8885 12.5466 12.5468C12.8881 12.2152 13.1521 11.8123 13.3199 11.3668C13.51 10.8472 13.6136 10.3 13.6266 9.74683C13.6266 9.04016 13.6666 8.8135 13.6666 7.00016C13.6666 5.18683 13.6666 4.96016 13.6266 4.2535ZM12.4266 9.66683C12.4217 10.09 12.3451 10.5093 12.1999 10.9068C12.0935 11.197 11.9225 11.4591 11.6999 11.6735C11.4837 11.8938 11.2221 12.0645 10.9333 12.1735C10.5357 12.3187 10.1164 12.3953 9.69325 12.4002C9.02659 12.4335 8.77992 12.4402 7.02658 12.4402C5.27325 12.4402 5.02659 12.4402 4.35992 12.4002C3.92051 12.4084 3.48298 12.3407 3.06659 12.2002C2.79044 12.0855 2.54082 11.9154 2.33325 11.7002C2.11198 11.486 1.94315 11.2236 1.83992 10.9335C1.67716 10.5303 1.58688 10.1015 1.57325 9.66683C1.57325 9.00016 1.53325 8.7535 1.53325 7.00016C1.53325 5.24683 1.53325 5.00016 1.57325 4.3335C1.57624 3.90087 1.65522 3.47213 1.80659 3.06683C1.92395 2.78544 2.1041 2.5346 2.33325 2.3335C2.53579 2.10427 2.78611 1.92223 3.06659 1.80016C3.47295 1.65352 3.90125 1.57688 4.33325 1.5735C4.99992 1.5735 5.24658 1.5335 6.99992 1.5335C8.75325 1.5335 8.99992 1.5335 9.66658 1.5735C10.0898 1.57835 10.5091 1.65499 10.9066 1.80016C11.2095 1.9126 11.4814 2.09539 11.6999 2.3335C11.9184 2.53828 12.0891 2.78865 12.1999 3.06683C12.3481 3.47278 12.4248 3.90135 12.4266 4.3335C12.4599 5.00016 12.4666 5.24683 12.4666 7.00016C12.4666 8.7535 12.4599 9.00016 12.4266 9.66683ZM6.99992 3.58016C6.32379 3.58148 5.66323 3.78318 5.10169 4.15977C4.54015 4.53637 4.10284 5.07096 3.84501 5.696C3.58718 6.32104 3.5204 7.00847 3.65311 7.67145C3.78583 8.33442 4.11208 8.94319 4.59064 9.42081C5.0692 9.89844 5.67859 10.2235 6.34182 10.3549C7.00506 10.4864 7.69236 10.4182 8.3169 10.1592C8.94143 9.90014 9.47517 9.46179 9.85067 8.89952C10.2262 8.33725 10.4266 7.67629 10.4266 7.00016C10.4275 6.55023 10.3394 6.10457 10.1674 5.6888C9.99544 5.27303 9.74296 4.89537 9.4245 4.57753C9.10604 4.25969 8.72788 4.00795 8.31178 3.83678C7.89568 3.66562 7.44985 3.5784 6.99992 3.58016ZM6.99992 9.22016C6.56084 9.22016 6.13163 9.08996 5.76655 8.84602C5.40147 8.60209 5.11693 8.25537 4.94891 7.84972C4.78088 7.44407 4.73692 6.9977 4.82258 6.56706C4.90823 6.13642 5.11967 5.74086 5.43014 5.43039C5.74061 5.11991 6.13618 4.90848 6.56682 4.82282C6.99746 4.73716 7.44382 4.78112 7.84948 4.94915C8.25513 5.11718 8.60184 5.40172 8.84578 5.7668C9.08972 6.13187 9.21992 6.56109 9.21992 7.00016C9.21992 7.2917 9.1625 7.58038 9.05093 7.84972C8.93937 8.11906 8.77584 8.36379 8.5697 8.56994C8.36355 8.77609 8.11882 8.93961 7.84948 9.05118C7.58013 9.16274 7.29145 9.22016 6.99992 9.22016Z" fill="#333333"/>
</svg>
