<svg width="16" height="16" viewBox="0 0 16 16" fill="none" xmlns="http://www.w3.org/2000/svg">
<g clip-path="url(#clip0_541_9326)">
<path fill-rule="evenodd" clip-rule="evenodd" d="M10.6667 4.7334C8.14339 4.7334 6.06673 6.81006 6.06673 9.33339V14.0001C6.06673 14.3314 6.33539 14.6001 6.66673 14.6001H9.3334C9.66473 14.6001 9.93339 14.3314 9.93339 14.0001V9.33339C9.93339 8.93139 10.2647 8.60006 10.6667 8.60006C11.0687 8.60006 11.4001 8.93139 11.4001 9.33339V14.0001C11.4001 14.3314 11.6687 14.6001 12.0001 14.6001H14.6667C14.9981 14.6001 15.2667 14.3314 15.2667 14.0001V9.33339C15.2667 6.81006 13.1901 4.7334 10.6667 4.7334ZM4.60006 6.00006C4.60006 5.66873 4.33139 5.40006 4.00006 5.40006H1.33339C1.00206 5.40006 0.733398 5.66873 0.733398 6.00006V14.0001C0.733398 14.3314 1.00206 14.6001 1.33339 14.6001H4.00006C4.33139 14.6001 4.60006 14.3314 4.60006 14.0001V6.00006ZM14.0667 13.4001V9.33339C14.0667 7.46806 12.5321 5.93339 10.6667 5.93339C8.80139 5.93339 7.26672 7.46806 7.26672 9.33339V13.4001H8.7334V9.33339C8.7334 8.27273 9.60606 7.40006 10.6667 7.40006C11.7274 7.40006 12.6001 8.27273 12.6001 9.33339V13.4001H14.0667ZM1.93339 6.60006V13.4001H3.40007V6.60006H1.93339ZM2.66673 0.733398C1.59939 0.733398 0.733398 1.59939 0.733398 2.66673C0.733398 3.73406 1.59939 4.60006 2.66673 4.60006C3.73406 4.60006 4.60006 3.73406 4.60006 2.66673C4.60006 1.59939 3.73406 0.733398 2.66673 0.733398ZM2.66673 1.93339C3.07139 1.93339 3.40007 2.26206 3.40007 2.66673C3.40007 3.07139 3.07139 3.40006 2.66673 3.40006C2.26206 3.40006 1.93339 3.07139 1.93339 2.66673C1.93339 2.26206 2.26206 1.93339 2.66673 1.93339Z" fill="#333333"/>
</g>
<defs>
<clipPath id="clip0_541_9326">
<rect width="16" height="16" fill="white"/>
</clipPath>
</defs>
</svg>
