<svg width="12" height="12" viewBox="0 0 12 12" fill="none" xmlns="http://www.w3.org/2000/svg">
<path d="M2.32655 8.51315L1.86341 8.70157L1.86341 8.70157L2.32655 8.51315ZM2.15305 5.69856L2.63569 5.82914L2.15305 5.69856ZM9.84696 5.69856L9.36431 5.82914L9.84696 5.69856ZM9.67345 8.51315L10.1366 8.70158L10.1366 8.70157L9.67345 8.51315ZM7.01823 10.4209L6.94096 9.9269H6.94096L7.01823 10.4209ZM4.98176 10.4209L5.05902 9.9269L4.98176 10.4209ZM4.3281 3.80107L4.22845 3.3111L4.3281 3.80107ZM7.67191 3.80107L7.77156 3.3111L7.77155 3.3111L7.67191 3.80107ZM4.60739 10.3623L4.53013 10.8563H4.53013L4.60739 10.3623ZM2.37299 8.62731L2.83613 8.43889L2.83613 8.43889L2.37299 8.62731ZM7.3926 10.3623L7.46986 10.8563H7.46986L7.3926 10.3623ZM9.627 8.62732L9.16386 8.4389V8.4389L9.627 8.62732ZM7.80996 3.82914L7.71032 4.31911H7.71032L7.80996 3.82914ZM4.19004 3.82914L4.28969 4.31911L4.19004 3.82914ZM3.32199 3.7153C3.32199 3.99144 3.54584 4.2153 3.82199 4.2153C4.09813 4.2153 4.32199 3.99144 4.32199 3.7153H3.32199ZM3.82199 3.56386H3.32199H3.82199ZM8.17799 3.56386H7.67799H8.17799ZM7.67799 3.7153C7.67799 3.99144 7.90184 4.2153 8.17799 4.2153C8.45413 4.2153 8.67799 3.99144 8.67799 3.7153H7.67799ZM5.42585 1.57063L5.30452 1.08558L5.30452 1.08558L5.42585 1.57063ZM6.57412 1.57063L6.69545 1.08558L6.57412 1.57063ZM4.28969 4.31911L4.42774 4.29104L4.22845 3.3111L4.0904 3.33917L4.28969 4.31911ZM7.57226 4.29104L7.71032 4.31911L7.90961 3.33917L7.77156 3.3111L7.57226 4.29104ZM7.31534 9.86835L6.94096 9.9269L7.09549 10.9149L7.46986 10.8563L7.31534 9.86835ZM5.05902 9.9269L4.68466 9.86835L4.53013 10.8563L4.9045 10.9149L5.05902 9.9269ZM9.21031 8.32473L9.16386 8.4389L10.0901 8.81574L10.1366 8.70158L9.21031 8.32473ZM2.83613 8.43889L2.78969 8.32473L1.86341 8.70157L1.90985 8.81573L2.83613 8.43889ZM2.78969 8.32473C2.46577 7.52853 2.41211 6.65554 2.63569 5.82914L1.6704 5.56798C1.3895 6.60625 1.45729 7.70333 1.86341 8.70157L2.78969 8.32473ZM9.36431 5.82914C9.58789 6.65554 9.53423 7.52853 9.21031 8.32473L10.1366 8.70157C10.5427 7.70333 10.6105 6.60625 10.3296 5.56798L9.36431 5.82914ZM6.94096 9.9269C6.31778 10.0244 5.68221 10.0244 5.05902 9.9269L4.9045 10.9149C5.63008 11.0284 6.36991 11.0284 7.09549 10.9149L6.94096 9.9269ZM4.42774 4.29104C5.46437 4.08021 6.53563 4.08021 7.57226 4.29104L7.77155 3.3111C6.60341 3.07353 5.39659 3.07353 4.22845 3.3111L4.42774 4.29104ZM4.68466 9.86835C3.83897 9.73608 3.14041 9.1868 2.83613 8.43889L1.90985 8.81573C2.3518 9.90205 3.35233 10.6721 4.53013 10.8563L4.68466 9.86835ZM7.46986 10.8563C8.64765 10.6721 9.64818 9.90205 10.0901 8.81574L9.16386 8.4389C8.85958 9.18681 8.16102 9.73608 7.31534 9.86835L7.46986 10.8563ZM7.71032 4.31911C8.52648 4.4851 9.16067 5.07643 9.36431 5.82914L10.3296 5.56798C10.0227 4.43346 9.07936 3.57707 7.90961 3.33917L7.71032 4.31911ZM4.0904 3.33917C2.92065 3.57707 1.97734 4.43346 1.6704 5.56798L2.63569 5.82914C2.83934 5.07643 3.47352 4.4851 4.28969 4.31911L4.0904 3.33917ZM4.32199 3.7153V3.56386H3.32199V3.7153H4.32199ZM7.67799 3.56386V3.7153H8.67799V3.56386H7.67799ZM5.54719 2.05569C5.844 1.98144 6.15597 1.98144 6.45278 2.05569L6.69545 1.08558C6.23931 0.971475 5.76066 0.971475 5.30452 1.08558L5.54719 2.05569ZM8.67799 3.56386C8.67799 2.38447 7.85041 1.37448 6.69545 1.08558L6.45278 2.05569C7.18704 2.23936 7.67799 2.86798 7.67799 3.56386H8.67799ZM4.32199 3.56386C4.32199 2.86798 4.81293 2.23936 5.54719 2.05569L5.30452 1.08558C4.14957 1.37448 3.32199 2.38447 3.32199 3.56386H4.32199Z" fill="#333333"/>
<path d="M6 6.75L6 7.75" stroke="#333333" stroke-linecap="round"/>
</svg>
