<svg width="28" height="28" viewBox="0 0 28 28" fill="none" xmlns="http://www.w3.org/2000/svg">
<path fill-rule="evenodd" clip-rule="evenodd" d="M5.50083 15.7871V15.5681C5.53295 14.9202 5.7406 14.2925 6.10236 13.7496C6.7045 13.0975 7.1167 12.2983 7.29571 11.436C7.29571 10.7695 7.29571 10.0935 7.35393 9.42703C7.65469 6.21842 10.8273 4 13.9611 4H14.0387C17.1725 4 20.345 6.21842 20.6555 9.42703C20.7137 10.0935 20.6555 10.7695 20.704 11.436C20.8854 12.3003 21.2972 13.1019 21.8974 13.7591C22.2618 14.2972 22.4698 14.9227 22.4989 15.5681V15.7776C22.5206 16.648 22.2208 17.4968 21.6548 18.1674C20.907 18.9515 19.8921 19.4393 18.8024 19.5384C15.607 19.8812 12.383 19.8812 9.18762 19.5384C8.09914 19.435 7.08576 18.9479 6.33521 18.1674C5.778 17.4963 5.48224 16.6526 5.50083 15.7871Z" stroke="#333333" stroke-width="1.5" stroke-linecap="round" stroke-linejoin="round"/>
<path d="M11.5547 22.8516C12.054 23.4782 12.7871 23.8838 13.592 23.9785C14.3968 24.0732 15.2069 23.8493 15.843 23.3562C16.0387 23.2103 16.2147 23.0408 16.3669 22.8516" stroke="#333333" stroke-width="1.5" stroke-linecap="round" stroke-linejoin="round"/>
</svg>
