<svg width="85" height="48" viewBox="0 0 85 48" fill="none" xmlns="http://www.w3.org/2000/svg">
<rect x="1.03809" y="0.5" width="82.904" height="47" stroke="#E7E7E7"/>
<path d="M58.8777 17.1263C59.4644 14.9379 58.8777 13.479 56.8242 12.1323C54.5752 10.6172 50.4683 10 45.188 10H30.0315C28.9559 10 28.0758 10.4489 27.8803 11.0661L21.5243 34.0721C21.4266 34.521 22.0133 34.9138 22.7955 34.9138H32.1828L31.4983 37.2705C31.4005 37.6633 31.8894 38 32.6717 38H40.5921C41.57 38 42.3522 37.6072 42.45 37.1022L44.1124 31.1543C44.2101 30.6493 45.0902 30.2565 45.9702 30.2565H47.1436C54.7708 30.2565 60.8334 28.4609 62.5935 23.2986C63.2779 21.1663 62.9846 19.3146 61.0289 18.0802C60.4422 17.6874 59.7577 17.4068 58.8777 17.1263Z" fill="#2CA1E9"/>
<path d="M58.8777 17.1263C59.4644 14.9379 58.8777 13.479 56.8242 12.1323C54.5752 10.6172 50.4683 10 45.188 10H30.0315C28.9559 10 28.0758 10.4489 27.8803 11.0661L21.5243 34.0721C21.4266 34.521 22.0133 34.9138 22.7955 34.9138H32.1827L34.4318 26.6092C34.6273 25.992 35.5074 25.5431 36.583 25.5431H41.0811C49.8816 25.5431 56.7264 23.523 58.6821 17.5751C58.7799 17.4629 58.7799 17.2946 58.8777 17.1263Z" fill="#004FA7"/>
<path d="M37.0719 17.1824C37.1697 16.7896 38.0498 16.2846 38.9298 16.2846H50.8594C52.2284 16.2846 53.5974 16.3407 54.7708 16.4529C55.8464 16.5651 57.8021 16.8457 58.7799 17.1824C59.3666 14.994 58.7799 13.5351 56.7264 12.1884C54.5752 10.6172 50.4683 10 45.188 10H30.0315C28.9559 10 28.0758 10.4489 27.8803 11.0661L21.5243 34.0721C21.4266 34.521 22.0133 34.9138 22.7955 34.9138H32.1828L37.0719 17.1824Z" fill="#004FA7"/>
</svg>
