<svg width="11" height="12" viewBox="0 0 11 12" fill="none" xmlns="http://www.w3.org/2000/svg">
<path d="M0 6.59824C0 9.58944 2.47231 12 5.5 12C8.52769 12 11 9.57185 11 6.59824C11 5.12023 10.3909 3.7654 9.38762 2.78006L9.81759 2.35777L10.0147 2.55132C10.1042 2.6393 10.2117 2.67449 10.3192 2.67449C10.4267 2.67449 10.5342 2.6393 10.6238 2.55132C10.785 2.39296 10.785 2.11144 10.6238 1.95308L9.62052 0.967742C9.45928 0.809384 9.17264 0.809384 9.0114 0.967742C8.85016 1.1261 8.85016 1.40762 9.0114 1.56598L9.20847 1.75953L8.72476 2.2346C7.91857 1.65396 6.95114 1.28446 5.91205 1.21408V0.844575H6.86156C7.09446 0.844575 7.29153 0.651026 7.29153 0.422287C7.29153 0.193548 7.09446 0 6.86156 0H4.04886C3.81596 0 3.61889 0.193548 3.61889 0.422287C3.61889 0.651026 3.81596 0.844575 4.04886 0.844575H5.07003V1.21408C2.23941 1.42522 0 3.7478 0 6.59824ZM5.5 11.1554C2.93811 11.1554 0.859935 9.11437 0.859935 6.59824C0.859935 4.08211 2.93811 2.04106 5.5 2.04106C8.06189 2.04106 10.1401 4.08211 10.1401 6.59824C10.1401 9.11437 8.06189 11.1554 5.5 11.1554Z" fill="#3AAFA9"/>
<path d="M5.5 11.1554C2.93811 11.1554 0.859935 9.11437 0.859935 6.59824C0.859935 4.08211 2.93811 2.04106 5.5 2.04106C8.06189 2.04106 10.1401 4.08211 10.1401 6.59824C10.1401 9.11437 8.06189 11.1554 5.5 11.1554Z" fill="#3AAFA9"/>
</svg>
