<svg width="12" height="12" viewBox="0 0 12 12" fill="none" xmlns="http://www.w3.org/2000/svg">
<g clip-path="url(#clip0_596_9000)">
<path d="M4.45659 3.95072L1.26659 4.41322L1.21009 4.42472C1.12456 4.44743 1.04659 4.49243 0.984134 4.55512C0.921683 4.61782 0.87699 4.69597 0.854619 4.78159C0.832248 4.8672 0.833002 4.95723 0.856802 5.04246C0.880602 5.12769 0.926596 5.20508 0.990088 5.26672L3.30109 7.51622L2.75609 10.6937L2.74959 10.7487C2.74435 10.8372 2.76272 10.9254 2.80281 11.0045C2.84291 11.0835 2.90328 11.1505 2.97776 11.1985C3.05223 11.2465 3.13813 11.2739 3.22666 11.2778C3.31519 11.2817 3.40317 11.262 3.48159 11.2207L6.33459 9.72072L9.18109 11.2207L9.23109 11.2437C9.31362 11.2762 9.40331 11.2862 9.49096 11.2726C9.57862 11.259 9.66108 11.2223 9.72988 11.1664C9.79869 11.1104 9.85137 11.0371 9.8825 10.954C9.91364 10.871 9.92213 10.7811 9.90709 10.6937L9.36159 7.51622L11.6736 5.26622L11.7126 5.22372C11.7683 5.15511 11.8048 5.07295 11.8184 4.98562C11.8321 4.89829 11.8223 4.80891 11.7901 4.72659C11.758 4.64426 11.7046 4.57194 11.6353 4.51698C11.5661 4.46202 11.4836 4.42639 11.3961 4.41372L8.20609 3.95072L6.78009 1.06072C6.73883 0.97699 6.67495 0.90648 6.59568 0.857175C6.51642 0.80787 6.42494 0.781738 6.33159 0.781738C6.23824 0.781738 6.14676 0.80787 6.06749 0.857175C5.98823 0.90648 5.92435 0.97699 5.88309 1.06072L4.45659 3.95072Z" fill="#FFDD67"/>
</g>
<defs>
<clipPath id="clip0_596_9000">
<rect width="12" height="12" fill="white"/>
</clipPath>
</defs>
</svg>
