<svg width="12" height="12" viewBox="0 0 12 12" fill="none" xmlns="http://www.w3.org/2000/svg">
<path d="M10.0699 6.85511L2.9999 11.0901C2.84869 11.1774 2.67725 11.2236 2.50264 11.2241C2.32803 11.2246 2.15633 11.1794 2.00463 11.0929C1.85294 11.0064 1.72652 10.8817 1.63797 10.7313C1.54942 10.5808 1.50182 10.4097 1.4999 10.2351V1.76511C1.50182 1.59051 1.54942 1.41946 1.63797 1.26897C1.72652 1.11847 1.85294 0.993793 2.00463 0.907325C2.15633 0.820857 2.32803 0.775617 2.50264 0.776106C2.67725 0.776595 2.84869 0.822796 2.9999 0.910111L10.0699 5.14511C10.2168 5.23425 10.3383 5.35975 10.4227 5.50951C10.507 5.65928 10.5513 5.82824 10.5513 6.00011C10.5513 6.17198 10.507 6.34095 10.4227 6.49071C10.3383 6.64047 10.2168 6.76598 10.0699 6.85511Z" fill="#3AAFA9" stroke="white" stroke-linecap="round" stroke-linejoin="round"/>
</svg>
