<svg width="85" height="48" viewBox="0 0 85 48" fill="none" xmlns="http://www.w3.org/2000/svg">
<rect x="0.62793" y="0.5" width="82.904" height="47" stroke="#E7E7E7"/>
<path d="M4.66016 16.3048L4.73635 16H11.2887C12.203 16 12.8887 16.3048 13.1173 17.2952L14.5649 24.1524C13.1173 20.4952 9.76492 17.5238 4.66016 16.3048Z" fill="#FFA901"/>
<path d="M29.4988 16.0762L22.8702 31.5429H18.375L14.5654 18.5905C17.3083 20.3429 19.594 23.0857 20.4321 24.9905L20.8892 26.5905L25.0035 16H29.4988V16.0762Z" fill="#004FA7"/>
<path d="M32.1647 16H36.3552L33.6885 31.5429H29.498L32.1647 16Z" fill="#004FA7"/>
<path d="M48.4688 26.6667C48.4688 29.8667 45.5735 32 41.0783 32C39.1735 32 37.345 31.619 36.3545 31.1619L36.964 27.6571L37.4973 27.8857C38.8688 28.4952 39.7831 28.7238 41.4593 28.7238C42.6783 28.7238 43.9735 28.2667 43.9735 27.2C43.9735 26.5143 43.4402 26.0571 41.764 25.2952C40.164 24.5333 38.0307 23.3143 38.0307 21.1048C38.0307 18.0571 41.0021 16 45.1926 16C46.7926 16 48.164 16.3048 49.0021 16.6857L48.3926 20.0381L48.0878 19.7333C47.3259 19.4286 46.3354 19.1238 44.8878 19.1238C43.2878 19.2 42.5259 19.8857 42.5259 20.4952C42.5259 21.181 43.4402 21.7143 44.8878 22.4C47.3259 23.5429 48.4688 24.8381 48.4688 26.6667Z" fill="#004FA7"/>
<path d="M60.7363 16H57.4601C56.4696 16 55.7077 16.3048 55.2505 17.2952L49.0029 31.5429H53.422C53.422 31.5429 54.1839 29.6381 54.3363 29.181C54.7934 29.181 59.1363 29.181 59.7458 29.181C59.8982 29.7143 60.2791 31.4667 60.2791 31.4667H64.241L60.7363 16ZM55.5553 25.981C55.9363 25.0667 57.2315 21.6381 57.2315 21.6381C57.2315 21.7143 57.6125 20.7238 57.7648 20.1905L58.0696 21.5619C58.0696 21.5619 58.9077 25.2952 59.0601 26.0571H55.5553V25.981Z" fill="#004FA7"/>
</svg>
