<svg width="300" height="355" viewBox="0 0 300 355" fill="none" xmlns="http://www.w3.org/2000/svg">
<g clip-path="url(#clip0_203_2667)">
<path d="M174.015 168.592H162.699V128.441H208.269C215.328 128.441 221.049 122.682 221.049 115.59C221.049 108.498 215.328 102.739 208.269 102.739H162.699V89.3596C179.918 84.256 193.224 69.0831 195.1 50.0366C197.572 24.9785 179.312 2.56407 154.393 0.0812397C142.357 -1.1142 130.516 2.4836 121.145 10.208C111.764 17.9323 105.952 28.8866 104.75 41.0249C102.554 63.2094 116.615 83.3134 137.151 89.3711V102.739H124.292C99.2129 102.739 78.8135 123.28 78.8135 148.511C78.8135 173.753 99.2129 194.293 124.292 194.293H137.151V234.444H132.689C107.611 234.444 87.1883 254.973 87.1883 280.215C87.1883 305.457 107.611 325.998 132.689 325.998H137.151V342.573C137.151 349.666 142.872 355.424 149.92 355.424C156.979 355.424 162.699 349.666 162.699 342.573V325.998H190.593C197.652 325.998 203.361 320.239 203.361 313.147C203.361 306.044 197.652 300.296 190.593 300.296H162.699V260.146H174.003C199.093 260.146 219.504 239.617 219.504 214.374C219.504 189.132 199.105 168.592 174.015 168.592ZM124.292 168.592C113.491 168.592 104.35 159.407 104.35 148.511C104.35 137.637 113.491 128.441 124.292 128.441H137.151V168.592H124.292ZM132.689 300.296C121.878 300.296 112.736 291.112 112.736 280.215C112.736 269.342 121.878 260.134 132.689 260.134H137.151V300.296H132.689ZM149.931 65.5083C149.92 65.5083 149.92 65.5083 149.92 65.5083C149.279 65.5083 148.627 65.4853 147.975 65.4164C137.083 64.3244 129.086 54.531 130.172 43.5652C131.179 33.2661 139.84 25.5532 149.908 25.5532C150.56 25.5532 151.224 25.5877 151.876 25.6452C162.768 26.7371 170.754 36.5305 169.678 47.4963C168.672 57.807 159.988 65.5083 149.931 65.5083ZM174.015 234.444H162.699V194.293H174.015C184.826 194.293 193.968 203.478 193.968 214.374C193.956 225.26 184.826 234.444 174.015 234.444Z" fill="white"/>
<path d="M82.3036 58.3358H42.5687C35.5096 58.3358 29.7891 52.5885 29.7891 45.4848C29.7891 38.3812 35.5096 32.6339 42.5687 32.6339H82.3036C89.3513 32.6339 95.0718 38.3812 95.0718 45.4848C95.0718 52.5885 89.3513 58.3358 82.3036 58.3358Z" fill="white"/>
<path d="M87.635 91.1296H72.3268C65.2791 91.1296 59.5586 85.3823 59.5586 78.2787C59.5586 71.175 65.2677 65.4277 72.3268 65.4277H87.635C94.6941 65.4277 100.415 71.175 100.415 78.2787C100.415 85.3823 94.6827 91.1296 87.635 91.1296Z" fill="white"/>
<path d="M90.0949 25.5532H12.2956C5.24788 25.5532 -0.472656 19.7944 -0.472656 12.7023C-0.472656 5.59862 5.23644 -0.160156 12.2956 -0.160156H90.0949C97.1426 -0.160156 102.875 5.59862 102.875 12.7023C102.875 19.7944 97.154 25.5532 90.0949 25.5532Z" fill="white"/>
<path d="M257.283 58.3358H217.549C210.501 58.3358 204.78 52.5885 204.78 45.4848C204.78 38.3812 210.489 32.6339 217.549 32.6339H257.283C264.342 32.6339 270.063 38.3812 270.063 45.4848C270.063 52.5885 264.342 58.3358 257.283 58.3358Z" fill="white"/>
<path d="M227.525 91.1296H212.217C205.169 91.1296 199.438 85.3823 199.438 78.2787C199.438 71.175 205.158 65.4277 212.217 65.4277H227.525C234.584 65.4277 240.305 71.175 240.305 78.2787C240.305 85.3823 234.584 91.1296 227.525 91.1296Z" fill="white"/>
<path d="M287.556 25.5532H209.757C202.698 25.5532 196.978 19.7944 196.978 12.7023C196.978 5.59862 202.698 -0.160156 209.757 -0.160156H287.556C294.604 -0.160156 300.325 5.59862 300.325 12.7023C300.325 19.7944 294.604 25.5532 287.556 25.5532Z" fill="white"/>
</g>
<defs>
<clipPath id="clip0_203_2667">
<rect width="300" height="355" fill="white"/>
</clipPath>
</defs>
</svg>
